<svg version="1" xmlns="http://www.w3.org/2000/svg" width="2108" height="2108" viewBox="0 0 1581.000000 1581.000000"><path d="M752.5 1c-7.2 1.5-18.7 2.9-40.5 5-141 13.3-277.9 66.4-392.6 152.2-34.4 25.8-49.2 38.6-82.2 71.2-34.7 34.3-52.3 54.3-79 90C72.4 434.1 19.3 571 6 712c-2.1 22.1-3.2 31.1-5.1 41.5-.7 4-.8 18.3-.5 42 .7 46.3.6 43.4 1.6 41 .5-1.1.9-1.4.9-.7 1.2 22.6 6 62.7 10.7 90.2 39.5 230.6 182.7 434.1 387.5 550.6 20.1 11.4 66.6 34.3 85.9 42.3 68.4 28.3 143.9 47.8 218.4 56.2 6.4.8 10.1 1.6 9 2-1.1.4 1.3.5 5.1.2 4.1-.3 6.5-.1 5.8.4-.8.6 1.1.9 5 1 3.4 0 8.7.5 11.7.9 5.3.9 83.3 1.3 95.5.5 3.3-.2 6.6-.8 7.3-1.4.7-.5 3.6-.7 6.9-.4 3.2.3 5.2.3 4.5-.1-.6-.5 4.3-1.3 11.1-2 18.4-1.9 56.7-7.8 79.1-12.3 115-23 222.2-71 316.1-141.4 32.7-24.5 51.2-40.4 81.4-70 106.4-104.2 181.5-237.9 214.9-382.5 7.2-30.9 15.9-83.4 17.8-106.8.4-4.9 1-7.8 1.5-7 .4.7.5-1.3.2-4.5-.3-3.3-.1-6.2.4-6.9.6-.7 1.2-4 1.4-7.3.8-12.2.4-90.2-.5-95.5-.4-3-.9-8.3-.9-11.7-.1-3.9-.4-5.8-1-5-.5.7-.7-1.7-.4-5.8.3-3.9.2-6.2-.2-5.1-.4 1.1-1.2-2.6-2-9-8.4-74.5-27.9-150-56.2-218.4-8-19.3-30.9-65.8-42.3-85.9-31.7-55.7-69-105.9-113.8-153.1C1254.4 133.8 1117 55.6 964.4 21.1c-37.8-8.5-92.6-16.3-128.6-18.2-.7 0-.4-.4.7-.9 2.5-1 4.6-.9-42.5-1.4-20.6-.2-39.3 0-41.5.4zM850 335c58.5 5.3 112.4 24.7 161 57.7 80.8 55.1 133.2 140.1 146.5 237.8 2.2 16.4 3.1 47.3 1.6 54.7-1.9 8.7-6.7 17.5-13.5 24.2-22.5 22.4-59.7 18.6-76.8-7.8-5.6-8.7-7.4-15.8-8.2-32.1-1.4-28.7-6.1-53.8-14.3-76.7-8.7-24.1-25.1-52.6-42.1-72.8-15.7-18.8-38.6-38.6-59.2-51.3-10.3-6.3-32.5-16.9-44.5-21.2-22.3-8.1-47.6-12.8-74.5-14-17-.7-24.8-2.7-33.5-8.3-14.3-9.2-22.5-24.4-22.5-41.7 0-14 4.6-25.1 14.5-35 6.7-6.7 13.5-10.7 21.6-12.9 6.5-1.8 27.6-2 43.9-.6zm-135.1 25.5c32.4 7.7 48.2 45.4 31 74.1-6 9.9-12.6 15-32 24.6-33.2 16.5-56.9 34.7-79.7 61.3-25.2 29.5-42.5 63.1-52.3 101.8-4.7 18.5-10.5 28-22.1 35.6-12.2 8-20.8 9.3-46.1 6.9-34.1-3.2-73.5 6-105 24.6-52.6 30.9-85.5 83.6-90.8 145.5-4.6 52.7 16.8 107.9 56.3 145.7 30 28.6 66.3 45.7 107.3 50.4 6 .6 118.2 1 335.5 1 279.4 0 327.9-.2 336-1.5 32.4-4.9 62.1-21.4 82.9-46 21.6-25.5 32.2-54.5 32.2-87.8 0-22.1-4.6-41-14.7-60.8-12.7-24.9-34.4-46.4-60.4-60-14-7.3-23.9-21.5-26.1-37.5-3.4-24.4 12.1-48 35.9-54.5 18-5 32.7-.7 61 18.1 56.9 37.7 94.7 99.5 102.7 167.7 10.3 87.6-29.1 173-102.5 222.3-29.9 20-59.1 31.2-98.5 37.8-9.1 1.5-38.5 1.7-338.5 2-341.2.3-347.6.3-371.8-3.8-72.1-12.2-136.6-51.1-179.9-108.5-29-38.4-46.9-80.9-54.9-130-2.2-13.6-3-53.7-1.4-69.2 5.4-53.2 23.9-100.2 56.6-144.1 11.6-15.5 38.2-42 53.9-53.8 46.1-34.5 99.4-54.4 152.7-57.1l12.7-.6 4.7-12.1c5.6-14.2 18.6-40.3 26.7-53.3 26.7-42.9 62-79.4 103.2-106.8 22.7-15 49.8-29.1 62-32.1 6.9-1.7 15.8-1.7 23.4.1zm126 94.1c28.3 4.1 54.4 12.9 79.6 26.8 64.3 35.3 108.6 99.8 119 173.1 3.2 22.1 1.4 35.1-6.3 47.1-18.7 28.9-61.2 30.1-81.7 2.3-6-8.1-8.2-14.6-10-29.6-4.3-35.1-16.8-60.7-40.9-84.1-21.3-20.6-45.8-32.7-74.6-36.8-19.5-2.7-22.2-3.3-28.4-6.2-16.9-8-27.8-25.2-27.9-44.2-.1-12.9 3.5-23 11.7-33.3 4.1-5.2 15-12.4 22.2-14.7 7.5-2.4 22.7-2.6 37.3-.4zm-4.1 123c30.7 10.1 60.1 36.5 74.1 66.5 6.1 13.1 7.4 17.6 7.9 28.1.3 7.9 0 11-1.7 16.5-6.4 21.2-25.4 35.3-47.6 35.3-21.6 0-39.8-13-47.4-33.9-3-8.3-9.9-15.2-18.2-18.2-13.5-4.9-23.6-14-29.5-26.4-10.4-21.8-3.7-47.9 15.8-61.6 14-9.8 29.5-11.9 46.6-6.3z"/><path d="M742.8 1.7c.6.2 1.8.2 2.5 0 .6-.3.1-.5-1.3-.5-1.4 0-1.9.2-1.2.5zM1324 207.4c0 .2.8 1 1.8 1.7 1.5 1.3 1.6 1.2.3-.4s-2.1-2.1-2.1-1.3zM251.4 212.2l-1.9 2.3 2.3-1.9c1.2-1.1 2.2-2.1 2.2-2.3 0-.8-.8-.2-2.6 1.9zM1349.5 232c4.4 4.4 8.2 8 8.5 8 .2 0-3.1-3.6-7.5-8s-8.2-8-8.5-8c-.2 0 3.1 3.6 7.5 8zM211.4 252.2l-1.9 2.3 2.3-1.9c2.1-1.8 2.7-2.6 1.9-2.6-.2 0-1.2 1-2.3 2.2zM1371 254.4c0 .2.8 1 1.8 1.7 1.5 1.3 1.6 1.2.3-.4s-2.1-2.1-2.1-1.3zM1.2 744c0 1.4.2 1.9.5 1.2.2-.6.2-1.8 0-2.5-.3-.6-.5-.1-.5 1.3zM1576.1 876.6c0 1.1.3 1.4.6.6.3-.7.2-1.6-.1-1.9-.3-.4-.6.2-.5 1.3zM1374.9 1322.7c-1.3 1.6-1.2 1.7.4.4 1.6-1.3 2.1-2.1 1.3-2.1-.2 0-1 .8-1.7 1.7zM207 1324.4c0 .2.8 1 1.8 1.7 1.5 1.3 1.6 1.2.3-.4s-2.1-2.1-2.1-1.3zM1360.4 1338.2l-2.9 3.3 3.3-2.9c3-2.8 3.7-3.6 2.9-3.6-.2 0-1.6 1.5-3.3 3.2zM224 1342.3c0 .1 3.5 3.6 7.8 7.7l7.7 7.5-7.5-7.8c-6.9-7.1-8-8.2-8-7.4zM1337.4 1361.2l-2.9 3.3 3.3-2.9c3-2.8 3.7-3.6 2.9-3.6-.2 0-1.6 1.5-3.3 3.2zM254 1371.4c0 .2.8 1 1.8 1.7 1.5 1.3 1.6 1.2.3-.4s-2.1-2.1-2.1-1.3zM1321.9 1375.7c-1.3 1.6-1.2 1.7.4.4.9-.7 1.7-1.5 1.7-1.7 0-.8-.8-.3-2.1 1.3zM875.8 1576.7c.7.3 1.6.2 1.9-.1.4-.3-.2-.6-1.3-.5-1.1 0-1.4.3-.6.6z"/></svg>